PathFileType	4	(X/Y/Z)	Kaydara	
DataRate	CameraRate	NumFrames	NumMarkers	Units	OrigDataRate	OrigDataStartFrame	OrigNumFrames	
240.00	240.00	4	72	mm	240.00	315	359	
Frame#	Time	Hips			RightUpLeg			RightLeg			RightFoot			RightFoot_End			LeftUpLeg			LeftLeg			LeftFoot			LeftFoot_End			Spine			Spine1			Spine2			Spine3			Neck			Head			Head_End			RightShoulder			RightArm			RightForeArm			RightHand			RightHandThumb1			RightHandThumb2			RightHandThumb3			RightHandThumb3_End			RightInHandIndex			RightHandIndex1			RightHandIndex2			RightHandIndex3			RightHandIndex3_End			RightInHandMiddle			RightHandMiddle1			RightHandMiddle2			RightHandMiddle3			RightHandMiddle3_End			RightInHandRing			RightHandRing1			RightHandRing2			RightHandRing3			RightHandRing3_End			RightInHandPinky			RightHandPinky1			RightHandPinky2			RightHandPinky3			RightHandPinky3_End			LeftShoulder			LeftArm			LeftForeArm			LeftHand			LeftHandThumb1			LeftHandThumb2			LeftHandThumb3			LeftHandThumb3_End			LeftInHandIndex			LeftHandIndex1			LeftHandIndex2			LeftHandIndex3			LeftHandIndex3_End			LeftInHandMiddle			LeftHandMiddle1			LeftHandMiddle2			LeftHandMiddle3			LeftHandMiddle3_End			LeftInHandRing			LeftHandRing1			LeftHandRing2			LeftHandRing3			LeftHandRing3_End			LeftInHandPinky			LeftHandPinky1			LeftHandPinky2			LeftHandPinky3			LeftHandPinky3_End			
		X1	Y1	Z1	X2	Y2	Z2	X3	Y3	Z3	X4	Y4	Z4	X5	Y5	Z5	X6	Y6	Z6	X7	Y7	Z7	X8	Y8	Z8	X9	Y9	Z9	X10	Y10	Z10	X11	Y11	Z11	X12	Y12	Z12	X13	Y13	Z13	X14	Y14	Z14	X15	Y15	Z15	X16	Y16	Z16	X17	Y17	Z17	X18	Y18	Z18	X19	Y19	Z19	X20	Y20	Z20	X21	Y21	Z21	X22	Y22	Z22	X23	Y23	Z23	X24	Y24	Z24	X25	Y25	Z25	X26	Y26	Z26	X27	Y27	Z27	X28	Y28	Z28	X29	Y29	Z29	X30	Y30	Z30	X31	Y31	Z31	X32	Y32	Z32	X33	Y33	Z33	X34	Y34	Z34	X35	Y35	Z35	X36	Y36	Z36	X37	Y37	Z37	X38	Y38	Z38	X39	Y39	Z39	X40	Y40	Z40	X41	Y41	Z41	X42	Y42	Z42	X43	Y43	Z43	X44	Y44	Z44	X45	Y45	Z45	X46	Y46	Z46	X47	Y47	Z47	X48	Y48	Z48	X49	Y49	Z49	X50	Y50	Z50	X51	Y51	Z51	X52	Y52	Z52	X53	Y53	Z53	X54	Y54	Z54	X55	Y55	Z55	X56	Y56	Z56	X57	Y57	Z57	X58	Y58	Z58	X59	Y59	Z59	X60	Y60	Z60	X61	Y61	Z61	X62	Y62	Z62	X63	Y63	Z63	X64	Y64	Z64	X65	Y65	Z65	X66	Y66	Z66	X67	Y67	Z67	X68	Y68	Z68	X69	Y69	Z69	X70	Y70	Z70	X71	Y71	Z71	X72	Y72	Z72	

315	1.308	2198.941	914.58397	126.699	2242.1494028235334	884.420053078731	50.42478832765023	2144.386467935415	490.86122492174763	-54.53243826176461	2143.361131913094	99.91721429631448	-133.4673226804393	1992.3761290226487	22.829844291488804	-45.15320815875908	2168.653672242022	918.3139231906043	215.28850732197964	2077.4880380823847	515.3577116153355	283.9163314636412	1994.2215882595228	89.6106912833965	355.8564998356037	1873.9188139427522	6.16437982644482	232.96966725276607	2139.020907160737	1033.8476895800034	75.21094685250269	2079.5362740408355	1089.473071246116	22.243410055561014	2014.360879675307	1140.5647664658227	-35.89857095559459	1947.6873389693528	1178.9767950275846	-95.2431589631898	1875.2957203601904	1220.3764675793973	-157.0839846865463	1808.060183925712	1258.935123669712	-210.986185824627	1674.7338974324966	1342.909377122987	-233.36794756375684	1910.3361416601595	1191.3030239384145	-159.30109871362458	1914.3921509448312	1104.8614057098162	-236.2699501432491	1885.0527651301502	940.2140418236012	-80.29855262893041	1798.2699982854792	813.0941452822688	-20.148325410493833	1793.9119707704135	823.3685408904493	-11.35549573215232	1792.9282897312692	822.1777664746589	0.6713101565562596	1792.3678763376265	817.9009927657949	9.180340832208312	1792.007292831425	811.3863713807185	16.388207138477018	1793.578081518206	812.0775276120182	-10.192879339710881	1788.5189317216839	797.1963288836455	6.049753093385974	1787.0322124722657	786.1741781064524	18.009477031304293	1787.5154164125095	782.9190104816323	24.43598352282031	1788.8647656864193	782.6512030001475	29.07471170805266	1794.189791546618	803.1871216385613	-10.363747504333872	1789.5855442040179	783.8638160003525	5.386212637883762	1788.0628990317957	770.7108244358328	18.362237755954737	1788.6937015890096	766.2434408895645	26.079876483049297	1790.1933852041602	765.6878247657725	31.138122321863097	1794.7302202628605	797.267063369976	-10.901513844661391	1791.012044926076	774.7556807098456	2.7392848751774004	1789.7942594426086	762.1716312521941	13.948385049294538	1790.4607903055999	757.2677877891491	21.339103793780087	1791.8983929130736	756.4635623844022	26.069744574795205	1795.6638726642802	791.0225642386145	-11.97171672521533	1792.757598291209	766.4578837684362	-0.12357375754559463	1791.9694139425906	754.7322584618546	8.63545291801287	1792.546027596477	750.3578020568341	13.921398756005296	1793.8715697233483	749.1863784191437	18.05161990921461	1888.6657638541476	1222.5151046179096	-112.84581631363639	1869.060241512591	1256.573029065614	-6.5372060973154085	1898.842466199523	1043.3627719484605	23.69793726321546	1837.1382475333544	849.5868749135656	-1.2291366223216271	1826.2103392531785	855.7164971667607	-5.147624647789312	1820.0969803137334	845.624299880653	-15.181829398953838	1816.1228274139999	835.3560103588093	-21.568997189833112	1813.0520020095148	824.0239823788885	-26.379859371899006	1825.6313672739896	845.2752075446826	-2.5828615172598517	1811.6577590335878	824.0208203888205	-5.763763062234889	1805.0930472063305	805.9654328151705	-12.096208214126994	1803.5996761166502	797.2371557767935	-18.536388433705124	1804.1092256148227	791.6968962762991	-25.555486440932594	1827.0381323334714	837.0473290906846	-1.0342392749939413	1814.1687119295814	811.8669090208512	-3.2979682896732148	1807.2402032252814	791.1441055705343	-9.998415223325027	1805.5512230455786	780.1239259994295	-17.66773073339597	1806.1635685310048	773.8237515798259	-25.299019383954235	1828.355583085386	831.7844465692506	0.18615075672800607	1817.8690781208345	804.6718414617344	-0.651219953001013	1812.090891358781	785.6060181645171	-6.27414140988797	1810.6002081289566	774.4431346548032	-13.556458946163922	1811.2415862230287	768.2667920234951	-20.67713425380631	1830.538901726429	826.2735047821631	1.3294592350811794	1822.151465306647	798.0276026679392	1.4166390226057923	1817.9772510949422	781.3126177505175	-2.74380240892447	1817.1089437572277	772.4700248139053	-7.890023864704155	1817.8031464080254	766.5957331950162	-14.10252222706455
316	1.313	2198.941	914.58397	126.699	2242.281882533072	884.4950498283109	50.45709738365719	2144.6237561929083	490.8679741184312	-54.34147236636067	2143.370855502508	99.92215072946516	-133.28037242544977	1992.3837006854437	22.851568585160578	-44.95516324963071	2168.523551110941	918.2407855323843	215.25832861812856	2077.1181115700206	515.3241105968588	283.8005704165931	1993.9734702391017	89.60739801704912	356.0813707625843	1873.6561168021292	6.163164614679271	233.20738749598908	2139.0043855019426	1033.8357294858192	75.19952916386877	2079.4613934328368	1089.3908974414323	22.22731918542864	2014.2289842001953	1140.4291900533585	-35.89537029069337	1947.5103799030458	1178.8419763366894	-95.1886713383866	1875.0740024801712	1220.2386487274189	-156.97902171627473	1807.8077603959382	1258.7982812690962	-210.84249138216583	1674.5416714769647	1342.79062641806	-233.48183168751257	1909.9536358736214	1190.97192034419	-159.15600728107344	1913.1234593618942	1103.9785515966944	-235.53298660640021	1883.2606361566377	942.9402781580412	-76.22032832270922	1794.5235614763274	818.4177792540852	-12.022938512353774	1791.1544329259848	829.8782552831509	-2.706810818925692	1790.8565911725996	828.6949186523543	9.412576522673472	1790.5745625070044	824.332407193231	18.005151103379006	1790.2756137324586	817.6685364612993	25.29897967063	1790.17463933389	818.4799977599267	-1.3672589701514777	1784.9978462268182	804.4346094238709	15.753946596131879	1783.5490576329662	793.407374939761	28.001559487761174	1784.2930264398633	789.8361943191982	34.34576350850423	1786.0181955960147	789.0957944356657	38.74012360226116	1790.2542497402128	809.2853386638546	-1.5322166998447062	1785.2474088383951	790.6128522923954	15.077966784298756	1783.6964755256959	777.4107239603092	28.3656608210209	1784.6084440801742	772.5411647070089	35.982817293696925	1786.503089990607	771.4582771704987	40.773103835212154	1790.4192092187927	803.1345258648779	-2.0846424951925164	1786.006857692928	781.0222740487593	12.324847928880526	1784.693861245787	768.3497560515843	23.801678224107143	1785.5941306527172	763.0337454051792	31.09338723704975	1787.3853403254298	761.7222648132557	35.571091056305356	1790.943547921356	796.5562944735469	-3.2254311998127956	1787.1396714363748	772.1707760817761	9.296546307423828	1786.1682167529304	760.3013241969938	18.260460111343313	1786.863546138697	755.5909251501325	23.469591877432496	1788.4725318213173	753.9498378056065	27.373108216410206	1888.6413763053718	1222.576504868766	-112.81961176961367	1869.7517220860811	1257.7367087423067	-6.785748766734793	1899.79876721121	1044.9672334627935	27.235069355336506	1830.9077082393387	853.107896891896	6.503397670412676	1819.5879088370352	860.6752803718837	3.61214667163388	1812.1248617864371	851.3536592287804	-5.618908078442541	1807.0972923906716	841.4980001112708	-11.474535161066395	1803.0511874409829	830.4038875697923	-15.866040334264069	1818.6163972977208	849.9715259410614	6.203353006253782	1802.8052809065168	829.8363129986409	4.392190293521389	1794.6933760605903	812.2920100957267	-1.1567223665947788	1792.3257888438295	803.7486699166241	-7.2865724537756815	1792.170887014913	798.2719036781372	-14.168063326201615	1819.76567035673	841.3547116624574	7.620689809824388	1804.964799898341	817.055598741314	6.621998219349029	1796.3196471341228	796.8352071938425	0.754565358306202	1793.5623521858638	786.0116181123808	-6.550895578239866	1793.4410541575503	779.7680188411464	-14.036744790308724	1820.949712237019	835.7906166864112	8.715186400160485	1808.621170149651	809.2125996959394	8.907564650331732	1801.3207990799285	790.5267606953755	3.986223995980586	1798.7858596579342	779.5227482739455	-2.9581262922209834	1798.7308977031043	773.3850243322856	-9.948210989468956	1823.019755825217	829.8833006144802	9.659425712722928	1812.87781752881	801.8908672866663	10.574887887624447	1807.4522276362131	785.387455980894	6.933553198527775	1805.8065319410402	776.6158972668269	2.013197234060377	1805.8748517294537	770.7500072747754	-4.095504401458009
317	1.317	2198.941	914.58397	126.699	2242.3604885337772	884.5299535275451	50.476973089609146	2144.786494525626	490.8539523317273	-54.217155098155864	2143.3896714420684	99.90626010153497	-133.15753071195908	1992.4016280368348	22.84798223027096	-44.823003805207996	2168.445465357056	918.2076105154998	215.24214833694947	2076.8601207099005	515.3176218859861	283.7034849257092	1993.7881229137465	89.62010826354683	356.2017987268682	1873.4606253179622	6.177191724969547	233.33681945315533	2138.9984990554285	1033.8262782655759	75.1818819634524	2079.406066674541	1089.320058836505	22.203641000359053	2014.1237772344043	1140.3099716648796	-35.903656890309804	1947.3642403008066	1178.7203748966551	-95.15226623383204	1874.887547426488	1220.1109592706737	-156.8993209340921	1807.594173677152	1258.6686339784883	-210.7305130683805	1674.3885781450692	1342.680192269452	-233.6246482107017	1909.6157452264006	1190.6606475069811	-159.0367208025406	1911.9505489404264	1103.138976360116	-234.86866731784664	1881.5144373821229	945.4573315212054	-72.47142320272562	1790.938571602052	823.3223859626659	-4.496841044845385	1788.4140713617635	835.759355082017	5.311861277373021	1788.7610581567633	834.5787792519552	17.535978692156455	1788.7646359652424	830.1414188795335	26.21335253659478	1788.5639534264435	823.3494761338744	33.588027055785304	1786.903036234516	824.2655732150308	6.792159978175967	1781.6976681166873	810.891624190508	24.695629667870215	1780.3507637953448	799.850441126569	37.20440638609864	1781.3602803587178	796.0168908880314	43.48515560797674	1783.4416354354917	794.8881998060223	47.67466614689953	1786.544862372603	814.8158687485328	6.618784746280544	1781.2733169169849	796.6604653396612	23.987493963867124	1779.776040819505	783.4066846854412	37.55616826372141	1780.9807797203437	778.2031028039208	45.09484596265203	1783.2517407588898	776.6868553668494	49.6600576736217	1786.3989456183951	808.4722495132648	6.0435597006605715	1781.4727418447821	786.6692549952832	21.122143466341683	1780.1481645694435	773.913615086758	32.83855873799931	1781.2998491935343	768.2551791512274	40.051741519845464	1783.430205736295	766.5266411372902	44.31647936826993	1786.584011983069	801.6167552221447	4.829338588569772	1782.0919119299854	777.3593324976207	17.93041724315164	1781.022410821913	765.3624942980073	27.07494142360444	1781.8581814281474	760.3729054449367	32.221358171290575	1783.7428817607401	758.345439351999	35.93309277488132	1888.6395451363487	1222.6402542763528	-112.8130712874215	1870.4233990837745	1258.838041974341	-7.023358229994522	1900.5274347004454	1046.2372405946605	29.9853495938747	1825.6700230587317	855.8346510764718	12.93980616833371	1813.9230571370958	864.4089676763545	10.905954627251795	1805.323189199447	855.5747012875049	2.317745271913921	1799.4316222995371	845.9612802360308	-3.115950828571311	1794.6033775910485	834.9859964411262	-7.177740372463905	1812.6920948889779	853.4860815455526	13.51193710732588	1795.394603473651	834.0352689327235	12.815157412987524	1786.0401725687325	816.770864803036	7.889980795700241	1782.9600935260073	808.3197814485297	1.9991066094093721	1782.255927300866	802.8642309818522	-4.784954056739323	1813.6865226495747	844.5718636091669	14.813241150084195	1797.3521913341417	820.779482344418	14.838765722531296	1787.3353249446532	800.8228085120764	9.63283991464848	1783.7108205861703	790.0905100416438	2.6065227591837345	1782.9848247231967	783.8603938780469	-4.777181485818209	1814.800442305173	838.7816827564269	15.798917162175675	1801.0406763083427	812.4659137026467	16.819399866845092	1792.53089656239	793.9664879925136	12.453461763649756	1789.15212490221	783.0274625241046	5.767125068248605	1788.5251175984777	776.8914823510868	-1.132244894678136	1816.8221308883049	832.5821842536294	16.572891064696073	1805.341707125589	804.6553916345894	18.148626045368424	1798.9323382333912	788.2323216720388	14.915387712861493	1796.663734821079	779.4748185427751	10.165500576767345	1796.2210468919784	773.591283829846	4.126955207145322
318	1.321	2198.941	914.58397	126.699	2242.3711434817183	884.5148957939628	50.480935133538146	2144.84901072823	490.8160536954105	-54.17742251995652	2143.4173760148074	99.86731095901806	-133.12013260286355	1992.430063084406	22.815056304652874	-44.77903764562638	2168.4326853216085	918.22393823701	215.2435778248705	2076.7453582641565	515.344641513481	283.6339627975976	1993.6851325432408	89.65234643575909	356.19408904267254	1873.3535428588775	6.208968285665057	233.33337796368633	2139.0074828886154	1033.821281721535	75.157625113222	2079.381021549693	1089.2688176171291	22.170915607029645	2014.0623511550975	1140.2203909006107	-35.92790612618471	1947.2706731626695	1178.6256866518368	-95.14343255927496	1874.7627263407944	1220.0079557341808	-156.859241612753	1807.4491559140786	1258.561483450382	-210.66827050750217	1674.301109713948	1342.5969806233852	-233.78955502355592	1909.3611667469117	1190.3956364471908	-158.96257746543813	1910.9794244463133	1102.3858479825149	-234.34470021868717	1879.9367362810062	947.4496445537095	-69.36716906054733	1787.8017704878052	827.188633648757	1.8665211912719446	1785.863298954493	840.2714278777785	12.108747854947062	1786.7444130173578	839.0754550586108	24.46552648606741	1787.011435594545	834.5728795073016	33.23779812075704	1786.9375371972505	827.6799535746193	40.69373646574475	1783.9940546857738	828.7015671747209	13.677495524273363	1778.833759509064	815.7363174346228	32.21621106675986	1777.640822271342	804.6589978419796	44.95517683515051	1778.8982611182707	800.6397076181155	51.21139794197801	1781.2874840705213	799.2471448811549	55.26752429857875	1783.3449775027984	819.0741904719852	13.478773494897663	1777.960009121833	801.2214069985351	31.45343409328421	1776.5923663495291	787.9030243779001	45.26762221657599	1778.0777968740585	782.4632750757286	52.77398323021025	1780.6766696250138	780.6524331168887	57.19192698860487	1782.9904420784442	812.5975959147887	12.871725879941819	1777.7757996997004	790.9590946621022	28.47244972471436	1776.5251852041963	778.1209126228615	40.39608118078518	1777.9268965313001	772.2207417917541	47.574492599601406	1780.3557520060533	770.2086074802985	51.69905654480411	1782.9490818275078	805.5535245252836	11.58434974767949	1778.0463249246652	781.34084932654	25.127133857203077	1776.9764383908562	769.2362438415508	34.42472603559642	1777.965744199182	764.0501756882106	39.5395575168796	1780.0982685677548	761.7598880213804	43.123540185151796	1888.6707468181314	1222.708265231349	-112.83189789029231	1871.0230212023837	1259.8145358198924	-7.22057052434724	1900.9739502070645	1047.1178475264846	31.918039281258643	1821.9415983023057	857.4596273736015	17.703830423385973	1809.7725632195973	866.5646908723273	16.275626333308132	1800.3313547432742	857.933470527535	8.110064690649573	1793.8244053950505	848.3988380059652	2.9526807407672653	1788.4579328351012	837.4356717360488	-0.8941767587111595	1808.4219134436146	855.4868467783868	18.89593068294169	1790.0802260999187	836.2880180196112	18.97866099666889	1779.8672920013748	819.0878617846879	14.471203808208731	1776.2861419974768	810.6471848559357	8.72574652049887	1775.1892742822067	805.1803260553298	1.9849645930614859	1809.3662597112052	846.3882789782887	20.11516058834762	1791.9864009264097	822.7419904437394	20.856636712254556	1781.029349138946	802.8301419437877	16.093012831047652	1776.7986990908987	792.0982670173659	9.235652504920528	1775.642225196471	785.8498789778444	1.896147751223177	1810.4723825074448	840.4621931839791	21.02426275945096	1795.7715896803256	814.1616267856615	22.623726035807188	1786.4405191587314	795.6751934550638	18.628343828040173	1782.476102142958	784.7227281850927	12.097036296387428	1781.4438790334873	778.5630040315984	5.235460661961747	1812.5079425903527	834.092698225857	21.677127372525163	1800.1757802431696	806.0777096898684	23.71386114437237	1793.1100031594635	789.6242861241525	20.751484156709346	1790.414834863953	780.837263284611	16.102163375104837	1789.6135384560953	774.9213501033757	10.089897641213915
